<?xml version="1.0" standalone="no"?><!DOCTYPE svg PUBLIC "-//W3C//DTD SVG 1.1//EN" "http://www.w3.org/Graphics/SVG/1.1/DTD/svg11.dtd"><svg t="1673246861350" class="icon" viewBox="0 0 1024 1024" version="1.1" xmlns="http://www.w3.org/2000/svg" p-id="5625" xmlns:xlink="http://www.w3.org/1999/xlink" width="200" height="200"><path d="M261.851429 109.714286a69.851429 69.851429 0 0 0-69.485715 63.268571l-26.697143 292.571429h283.428572L481.645714 109.714286zM526.262857 717.165714A236.617143 236.617143 0 0 1 877.714286 512l-30.72-337.554286A69.851429 69.851429 0 0 0 777.874286 109.714286h-224.548572l-73.142857 786.285714h126.537143a235.885714 235.885714 0 0 1-80.457143-178.834286zM133.485714 819.931429a69.851429 69.851429 0 0 0 69.485715 76.068571h207.36l32.548571-357.302857H159.085714z" fill="#383838" p-id="5626"></path><path d="M884.662857 583.314286a178.834286 178.834286 0 1 0 59.977143 134.217143 180.297143 180.297143 0 0 0-59.977143-134.217143z m-48.64 168.594285a14.628571 14.628571 0 0 1 14.994286 14.628572 14.628571 14.628571 0 0 1-14.994286 14.262857h-58.148571v36.571429a14.628571 14.628571 0 1 1-28.891429 0v-36.571429h-58.88a14.628571 14.628571 0 0 1-14.994286-14.262857 14.628571 14.628571 0 0 1 14.994286-14.628572h58.88v-16.822857h-59.977143a14.628571 14.628571 0 0 1 0-28.891428h38.765715l-42.788572-73.142857a15.36 15.36 0 0 1 5.485714-20.845715 14.994286 14.994286 0 0 1 20.48 5.485715l51.2 89.6h2.194286l51.2-89.6a14.994286 14.994286 0 0 1 20.48-5.485715 15.36 15.36 0 0 1 5.485714 20.845715l-42.788571 73.142857h36.571429a14.628571 14.628571 0 0 1 14.994285 14.628571 14.262857 14.262857 0 0 1-14.994285 14.262857h-57.417143v16.822857z" fill="#383838" p-id="5627"></path></svg>