<?xml version="1.0" standalone="no"?><!DOCTYPE svg PUBLIC "-//W3C//DTD SVG 1.1//EN" "http://www.w3.org/Graphics/SVG/1.1/DTD/svg11.dtd"><svg t="1673435399045" class="icon" viewBox="0 0 1024 1024" version="1.1" xmlns="http://www.w3.org/2000/svg" p-id="2163" xmlns:xlink="http://www.w3.org/1999/xlink" width="200" height="200"><path d="M523.480212 1024h-28.310588C478.906095 1015.567059 101.230801 867.990588 50.633154 542.117647V240.941176a106.014118 106.014118 0 0 1 72.884706-103.604705L504.807271 0h24.094118l371.049412 137.336471A106.616471 106.616471 0 0 1 972.835507 240.941176v293.345883c-50.597647 333.703529-428.272941 481.882353-444.536471 487.303529z m-12.047058-60.235294c43.369412-18.070588 361.411765-158.418824 401.167058-433.091765V240.941176a46.381176 46.381176 0 0 0-33.129411-43.971764L510.228448 60.235294 144.600212 193.957647a45.778824 45.778824 0 0 0-33.731764 42.767059v297.562353c41.562353 271.058824 357.797647 410.804706 400.564706 429.477647z" fill="#0F3567" p-id="2164"></path><path d="M475.89433 771.011765l-51.802353-30.72 113.242353-194.56h-162.635294L559.621389 216.847059l52.404706 29.515294-134.324706 239.134118h163.84L475.89433 771.011765z" fill="#0F3567" p-id="2165"></path></svg>