<?xml version="1.0" standalone="no"?><!DOCTYPE svg PUBLIC "-//W3C//DTD SVG 1.1//EN" "http://www.w3.org/Graphics/SVG/1.1/DTD/svg11.dtd"><svg t="1673435477667" class="icon" viewBox="0 0 1024 1024" version="1.1" xmlns="http://www.w3.org/2000/svg" p-id="2448" xmlns:xlink="http://www.w3.org/1999/xlink" width="200" height="200"><path d="M512 872.657926v-61.02503a299.632896 299.632896 0 1 0-299.632896-299.632896h-61.02503a360.657926 360.657926 0 1 1 360.657926 360.657926z" fill="#0F3567" p-id="2449"></path><path d="M512 634.05006a122.05006 122.05006 0 0 1-36.004768-244.10012l17.697259 61.02503a61.02503 61.02503 0 1 0 78.722288 42.107271l61.02503-17.697259A122.05006 122.05006 0 0 1 549.225268 628.557807a122.05006 122.05006 0 0 1-37.225268 5.492253z" fill="#0F3567" p-id="2450"></path><path d="M512 1024A512 512 0 0 1 512 0v61.02503a450.97497 450.97497 0 1 0 450.97497 450.97497h61.02503a512 512 0 0 1-512 512z" fill="#0F3567" p-id="2451"></path></svg>