<?xml version="1.0" standalone="no"?><!DOCTYPE svg PUBLIC "-//W3C//DTD SVG 1.1//EN" "http://www.w3.org/Graphics/SVG/1.1/DTD/svg11.dtd"><svg t="1663397384974" class="icon" viewBox="0 0 1024 1024" version="1.1" xmlns="http://www.w3.org/2000/svg" p-id="3907" xmlns:xlink="http://www.w3.org/1999/xlink" width="200" height="200"><path d="M488.96 24.632889c-4.152889-5.575111-6.371556 0-6.371556 0L361.244444 1021.269333 492.259556 1024 488.96 24.632889zM273.237333 815.843556l-9.216-60.131556-32.142222 49.265778-65.080889-1.934222 41.358222 43.52-25.998222 57.344 58.197334-29.582223 43.52 41.415111-3.015112-62.293333 56.604445-25.6-64.284445-11.946667z m113.152-370.688l-65.820444 20.707555-30.549333-58.197333-19.911112 83.000889-70.428444 36.522666 55.864889 12.856889-12.970667 84.081778 54.328889-70.257778 64.284445 19.911111-22.983112-65.365333 48.184889-63.260444z m-302.307555 139.377777l-36.636445 49.436445-47.445333 7.850666 29.013333 31.687112-26.737777 54.385777 47.445333-37.546666 33.564444 32.654222 2.332445-52.337778 41.358222-33.621333-43.576889-2.048 0.682667-50.460445zM171.406222 413.582222l21.390222-26.737778-27.534222 6.940445-14.563555-25.713778-13.084445 39.537778-35.84 17.806222 24.462222 5.973333-6.087111 35.555556 29.013334-32.597333 29.070222 10.808889-6.826667-31.573334z m125.44-140.344889l13.824 7.964445 6.144-19.911111 21.333334-16.782223-16.782223-2.958222v-15.815111l-17.635555 20.821333-23.722667 3.982223 8.362667 15.701333-14.506667 20.764444 22.983111-13.767111zM893.155556 126.065778s-102.115556-65.251556-295.367112-19.456c0 0 246.954667-23.552 309.248 165.205333 0 0 43.008 191.488-104.106666 338.659556 0 0-106.382222 118.044444-177.322667 147.114666L531.171556 3.982222s-7.509333-12.458667-7.509334 6.997334v1002.040888s114.915556-40.220444 125.610667-59.733333l-15.018667-124.871111s315.790222-158.264889 380.188445-420.522667c0 0 60.131556-192.967111-121.287111-281.770666z" p-id="3908"></path></svg>