<?xml version="1.0" standalone="no"?><!DOCTYPE svg PUBLIC "-//W3C//DTD SVG 1.1//EN" "http://www.w3.org/Graphics/SVG/1.1/DTD/svg11.dtd"><svg t="1668930471996" class="icon" viewBox="0 0 1024 1024" version="1.1" xmlns="http://www.w3.org/2000/svg" p-id="2488" xmlns:xlink="http://www.w3.org/1999/xlink" width="200" height="200"><path d="M512 512m-448 0a448 448 0 1 0 896 0 448 448 0 1 0-896 0Z" fill="#75B3F2" p-id="2489"></path><path d="M448 128c-107.4 0-206 37.8-283.2 100.8C101.8 306 64 404.6 64 512c0 247.4 200.6 448 448 448 107.4 0 206-37.8 283.2-100.8C858.2 782 896 683.4 896 576c0-247.4-200.6-448-448-448z" fill="#69A5ED" p-id="2490"></path><path d="M384 192c-91 0-175.6 27.1-246.3 73.7C91.1 336.4 64 421 64 512c0 247.4 200.6 448 448 448 91 0 175.6-27.1 246.3-73.7C804.9 815.6 832 731 832 640c0-247.4-200.6-448-448-448z" fill="#5E99EF" p-id="2491"></path><path d="M384 256c-126.5 0-238.7 61.2-308.7 155.6C67.9 443.8 64 477.5 64 512c0 247.4 200.6 448 448 448 34.5 0 68.2-3.9 100.4-11.3C706.8 878.7 768 766.5 768 640c0-212.1-171.9-384-384-384z" fill="#558FF3" p-id="2492"></path><path d="M575.5 704s114.7-18.4 205.2-125.8 27.8-282.5-205.5-255.3c0 0 184.3 9.5 177.2 161.5 0 0 16.8 116.2-180.2 195.7l3.4 23.3" fill="#FFFFFF" p-id="2493"></path><path d="M506.5 238.2l-0.5 588.2-85.5-22.6z" fill="#B8E6FF" p-id="2494"></path><path d="M339.9 439.2l24.5 49.7 54.8 8-39.6 38.6 9.3 54.7-49-25.8-49.1 25.8 9.4-54.7-39.7-38.6 54.9-8zM506.5 234.9v591.5l92.8-31.5-12.3-82.2z" fill="#FFFFFF" p-id="2495"></path></svg>