<?xml version="1.0" standalone="no"?><!DOCTYPE svg PUBLIC "-//W3C//DTD SVG 1.1//EN" "http://www.w3.org/Graphics/SVG/1.1/DTD/svg11.dtd"><svg t="1673247013192" class="icon" viewBox="0 0 1024 1024" version="1.1" xmlns="http://www.w3.org/2000/svg" p-id="8703" xmlns:xlink="http://www.w3.org/1999/xlink" width="200" height="200"><path d="M514.015093 774.291115A261.968494 261.968494 0 1 1 776.628829 512.322621 261.968494 261.968494 0 0 1 514.015093 774.291115z m0-459.412728A197.444234 197.444234 0 1 0 712.10457 512.322621a197.444234 197.444234 0 0 0-198.089477-197.444234z" fill="#0F3567" p-id="8704"></path><path d="M518.531791 1024A512.322621 512.322621 0 0 1 511.434122 0a511.677379 511.677379 0 0 1 509.741651 508.451166v84.52678a181.958412 181.958412 0 0 1-157.439193 193.572779h-3.871456a176.151229 176.151229 0 0 1-161.955891-181.958412h64.524259a112.917454 112.917454 0 0 0 99.36736 117.434152c54.200378 0 94.850662-64.52426 94.850662-129.048519V512.322621A445.217391 445.217391 0 1 0 66.861974 512.322621a447.153119 447.153119 0 0 0 655.566477 395.533712l29.68116 57.426591a516.194077 516.194077 0 0 1-233.57782 58.717076z" fill="#0F3567" p-id="8705"></path></svg>